# xmcd
#
# Track frame offsets: 
#        150
#        28630
#        33074
#        57973
#        97348
#        128229
#        178925
#
# Disc length: 2814 seconds
#
# Revision: 0
# Processed by: cddbd v1.5.1PL0 Copyright (c) Steve Scherf et al.
# Submitted via: ExactAudioCopy v0.95a5
#
DISCID=5c0afc07
DTITLE=Blues Traveler - 2000-11-11 Northern Lights, Clifton Park, NY
DYEAR=2000
DGENRE=Blues
TTITLE0=100 Years 
TTITLE1=Chan's Butt Dance
TTITLE2=Carolina Blues>
TTITLE3=Business As Usual
TTITLE4=All Hands>
TTITLE5=Mulling It Over> 
TTITLE6=But Anyway
EXTD=
EXTT0=
EXTT1=
EXTT2=
EXTT3=
EXTT4=
EXTT5=
EXTT6=
PLAYORDER=
